<svg id="Layer_1" data-name="Layer 1" xmlns="http://www.w3.org/2000/svg" viewBox="0 0 79.73 72.32"><defs><style>.cls-1{fill:#e0d9ff;}.cls-2{fill:#673ddb;}</style></defs><rect class="cls-1" width="79.73" height="72.32"/><path class="cls-2" d="M20.35,11.15V6.82A6.53,6.53,0,0,1,27.2,0H52.49a6.5,6.5,0,0,1,6.8,6.76c0,1.42,0,2.83,0,4.38H72.68c4.33,0,7,2.72,7,7.06,0,3.59,0,7.18,0,10.77a7.2,7.2,0,0,1-1.58,4.76,2,2,0,0,0-.29,1.2c0,9,0,18,0,26.94a10.08,10.08,0,0,1-7.1,9.94,13.39,13.39,0,0,1-3.84.47c-13.79,0-27.58,0-41.37,0H12.41A10.21,10.21,0,0,1,1.8,61.68c0-9,0-17.9,0-26.85a2.93,2.93,0,0,0-.49-1.48A6.84,6.84,0,0,1,0,29.46c0-3.89,0-7.77,0-11.65a6.48,6.48,0,0,1,6.65-6.65c4.2,0,8.4,0,12.6,0Zm-13,25.1V61.48c0,3.42,1.85,5.27,5.25,5.27H67c3.41,0,5.26-1.85,5.26-5.26q0-12.08,0-24.16v-1L50.07,40.74c0,.41,0,.73,0,1a6.47,6.47,0,0,1-2.41,5q-2,1.6-4.1,3.08A6.46,6.46,0,0,1,36,49.79c-1.32-.94-2.61-1.92-3.89-2.92a6.11,6.11,0,0,1-2.38-4c-.11-.71-.15-1.43-.24-2.2Zm42.81-1.31L73,30.39A1.19,1.19,0,0,0,74.12,29c0-3.59,0-7.18,0-10.77,0-1.31-.21-1.53-1.5-1.53H7c-1.24,0-1.47.23-1.47,1.46,0,3.5,0,7,0,10.51,0,1.45,0,1.46,1.43,1.74L24.7,34l4.85,1c0-.24,0-.38,0-.52.1-2.69,1.76-4.61,4.45-4.71,3.84-.15,7.7-.14,11.55-.05a4.4,4.4,0,0,1,4.25,3.24A18.87,18.87,0,0,1,50.17,34.94ZM25.92,11.07H53.73V7c0-1.23-.23-1.45-1.48-1.45q-9.87,0-19.72,0c-1.8,0-3.6,0-5.39,0-.91,0-1.21.3-1.22,1.18C25.91,8.17,25.92,9.59,25.92,11.07ZM44.38,35.33H35.26c0,2.2,0,4.36,0,6.52a1.19,1.19,0,0,0,.5.75c1.07.84,2.18,1.62,3.25,2.45a1.11,1.11,0,0,0,1.56,0c1-.82,2.14-1.58,3.19-2.41.25-.19.56-.52.56-.8C44.4,39.69,44.38,37.53,44.38,35.33Z"/></svg>