<svg id="Layer_1" data-name="Layer 1" xmlns="http://www.w3.org/2000/svg" viewBox="0 0 95.85 95.85"><defs><style>.cls-1{fill:#e0d9ff;}.cls-2{fill:#673ddb;}</style></defs><rect class="cls-1" width="95.85" height="95.85"/><path class="cls-2" d="M95.85,48.86a14.07,14.07,0,0,1-1.25,1.92,3.94,3.94,0,0,1-3.25,1.13c-.86,0-2-.24-2.52.19s-.36,1.56-.49,2.38A41.09,41.09,0,0,1,54.56,88.33a13.4,13.4,0,0,1-1.76.21c-.75,0-1,.35-.91,1s0,1.37,0,2.06a4,4,0,1,1-7.95,0c0-.75,0-1.5,0-2.25,0-.6-.19-.82-.78-.88a39.16,39.16,0,0,1-17.5-6.32,40.42,40.42,0,0,1-18-27.08c-.15-.83-.28-1.66-.36-2.5-.06-.59-.29-.8-.89-.77a22.9,22.9,0,0,1-2.62,0A4,4,0,0,1,3.83,44c.84,0,1.68,0,2.52,0,.63,0,.87-.18,1-.82A39.83,39.83,0,0,1,18.58,19.45,40,40,0,0,1,43,7.31c.71-.09,1-.32.92-1s0-1.43,0-2.15A3.93,3.93,0,0,1,46.6.22c.14-.06.26-.15.39-.22h1.87c.13.07.25.16.38.22a3.94,3.94,0,0,1,2.66,3.9c0,.78,0,1.56,0,2.34,0,.56.18.77.73.83.87.08,1.73.22,2.59.37A41,41,0,0,1,88.34,41.37c.13.83,0,2,.49,2.38s1.66.2,2.52.19a3.94,3.94,0,0,1,3.25,1.13A14.07,14.07,0,0,1,95.85,47ZM15.31,44c.88,0,1.69,0,2.49,0a4,4,0,1,1,.05,7.95c-.84,0-1.67,0-2.51,0,.3,5.68,3.59,13.79,9.5,19.5a32.94,32.94,0,0,0,19.1,9.22c0-.85,0-1.56,0-2.27a6.8,6.8,0,0,1,.15-1.57,4,4,0,0,1,7.78.91c0,1,0,1.9,0,2.86,16.2-1.65,27.78-15.9,28.57-28.65H78.32c-2.68,0-4.43-1.6-4.42-4S75.66,44,78.28,44c.74,0,1.48,0,2.22,0C79.32,29.72,66.71,16.63,52,15.33c0,.28,0,.55-.05.82a17.4,17.4,0,0,1-.13,2.8A4,4,0,0,1,44,18.19c0-.94,0-1.89,0-2.85C30,16.55,16.77,28.75,15.31,44Z"/><path class="cls-2" d="M47.86,63.88H35.42c-2.33,0-3.38-1.11-3.47-3.42a11.86,11.86,0,0,1,2.31-8.27,10.7,10.7,0,0,1,8.48-4.25c3.46-.06,6.93,0,10.39,0A10.93,10.93,0,0,1,63.86,58.43c0,.74,0,1.49,0,2.24a3,3,0,0,1-3.2,3.21Z"/><path class="cls-2" d="M55.92,35.94a8,8,0,1,1-8-8A8,8,0,0,1,55.92,35.94Z"/></svg>