<svg id="Layer_1" data-name="Layer 1" xmlns="http://www.w3.org/2000/svg" viewBox="0 0 88.13 103.86"><defs><style>.cls-1{fill:#e0d9ff;}.cls-2{fill:#673ddb;}</style></defs><rect class="cls-1" width="88.13" height="103.86"/><path class="cls-2" d="M44.82,0c1.12,1,2.28,2,3.36,3s2.39,2.4,3.53,3.64a3.35,3.35,0,0,0,3.67,1c2.4-.66,4.81-1.3,7.23-1.95a3.1,3.1,0,0,1,4.21,2.43c.66,2.41,1.32,4.82,1.93,7.24a3.44,3.44,0,0,0,2.71,2.68c2.46.62,4.9,1.29,7.33,2a3,3,0,0,1,2.34,4c-.62,2.42-1.24,4.84-1.95,7.23a3.57,3.57,0,0,0,1.08,3.93c1.76,1.68,3.46,3.43,5.17,5.16a3.1,3.1,0,0,1,0,4.87C83.7,47,82,48.75,80.19,50.46a3.5,3.5,0,0,0-1,3.85c.68,2.3,1.26,4.62,1.88,6.94s-.21,3.78-2.55,4.41-4.68,1.29-7,1.87a3.42,3.42,0,0,0-2.71,2.67c-.61,2.39-1.26,4.77-1.9,7.14s-2.07,3.13-4.34,2.52-4.7-1.23-7-1.9A3.51,3.51,0,0,0,51.64,79c-1.68,1.76-3.42,3.46-5.15,5.17s-3.32,1.62-5,0S38.07,80.77,36.39,79a3.56,3.56,0,0,0-3.94-1c-2.26.68-4.56,1.25-6.84,1.86s-3.84-.19-4.48-2.59-1.27-4.69-1.87-7a3.37,3.37,0,0,0-2.61-2.66c-2.35-.6-4.69-1.25-7-1.86S6.32,63.61,7,61.16s1.22-4.64,1.87-6.94a3.46,3.46,0,0,0-1-3.76C6.06,48.75,4.33,47,2.59,45.23a3.09,3.09,0,0,1,0-4.87c1.69-1.7,3.36-3.43,5.1-5.08a3.65,3.65,0,0,0,1.12-4.1C8.12,28.92,7.56,26.62,7,24.34s.23-3.8,2.55-4.41,4.75-1.28,7.14-1.89a3.38,3.38,0,0,0,2.61-2.65c.63-2.45,1.29-4.9,2-7.33a3.06,3.06,0,0,1,4.09-2.37c2.41.62,4.83,1.26,7.23,1.95a3.49,3.49,0,0,0,3.84-1.07c1.53-1.66,3.11-3.29,4.72-4.88A24.48,24.48,0,0,1,43.2,0Zm-.73,18.46A24.34,24.34,0,1,0,68.35,42.85,24.38,24.38,0,0,0,44.09,18.46Z"/><path class="cls-2" d="M88.13,88.38A3.25,3.25,0,0,1,85,91.48c-3.57.22-7.15.44-10.72.61a2,2,0,0,0-1.79,1c-1.89,3-3.83,6-5.76,8.94-1.62,2.48-4.23,2.41-5.7-.16-2.72-4.75-5.41-9.51-8.14-14.25-.35-.6-.27-.9.15-1.46a3.56,3.56,0,0,1,4.82-1.32A20.66,20.66,0,0,0,62.35,86a8.93,8.93,0,0,0,10.07-6.11c.63-2,1.12-4,1.62-6a1.28,1.28,0,0,1,1.09-1.1c1-.22,2-.52,3-.82a.83.83,0,0,1,1.14.45C82,77.23,84.76,82,87.47,86.71A11.6,11.6,0,0,1,88.13,88.38Z"/><path class="cls-2" d="M24.17,103.85a3.21,3.21,0,0,1-2.75-1.62c-2-3.1-4-6.17-6-9.28A1.63,1.63,0,0,0,14,92.11c-3.65-.19-7.29-.42-10.93-.63a3,3,0,0,1-2.6-4.59C3.18,82.05,6,77.23,8.8,72.43c.14-.25.62-.29.95-.42.05,0,.13,0,.19,0,1.24.35,2.79.37,3.61,1.15s.79,2.29,1.13,3.48c.3,1,.55,2.09.87,3.12a9.08,9.08,0,0,0,10.91,6.09c1.93-.48,3.84-1,5.78-1.5a1.55,1.55,0,0,1,1.19.32c.74.64,1.81,1.33,1.93,2.11s-.76,1.72-1.23,2.56C31.75,93.58,29.34,97.77,27,102A3.28,3.28,0,0,1,24.17,103.85Z"/><path class="cls-2" d="M44.05,24.54A18.26,18.26,0,1,1,25.76,42.75,18.28,18.28,0,0,1,44.05,24.54ZM41,47.72c-1.41-1.44-2.64-2.75-3.92-4A3,3,0,1,0,32.76,48q3,3,6,6a3,3,0,0,0,4.36,0q6.09-6,12.12-12.12a3,3,0,1,0-4.38-4.2C48.56,40,46.28,42.3,44,44.6,43,45.58,42.08,46.59,41,47.72Z"/></svg>